solid CATIA STL
  facet normal  0.000000e+000  0.000000e+000  1.000000e+000
    outer loop
      vertex  1.705256e+001 -1.446410e+001  1.550000e+001
      vertex  1.905256e+001 -1.100000e+001  1.550000e+001
      vertex  1.358846e+001 -1.246410e+001  1.550000e+001
    endloop
  endfacet
  facet normal  0.000000e+000  0.000000e+000  1.000000e+000
    outer loop
      vertex  1.358846e+001 -1.246410e+001  1.550000e+001
      vertex  1.905256e+001 -1.100000e+001  1.550000e+001
      vertex  1.558846e+001 -9.000000e+000  1.550000e+001
    endloop
  endfacet
  facet normal  0.000000e+000  0.000000e+000 -1.000000e+000
    outer loop
      vertex  1.705256e+001 -1.446410e+001  3.050000e+001
      vertex  1.358846e+001 -1.246410e+001  3.050000e+001
      vertex  1.905256e+001 -1.100000e+001  3.050000e+001
    endloop
  endfacet
  facet normal  -0.000000e+000  0.000000e+000 -1.000000e+000
    outer loop
      vertex  1.905256e+001 -1.100000e+001  3.050000e+001
      vertex  1.358846e+001 -1.246410e+001  3.050000e+001
      vertex  1.558846e+001 -9.000000e+000  3.050000e+001
    endloop
  endfacet
  facet normal  5.000000e-001  8.660254e-001  0.000000e+000
    outer loop
      vertex  1.358846e+001 -1.246410e+001  3.050000e+001
      vertex  1.705256e+001 -1.446410e+001  3.050000e+001
      vertex  1.358846e+001 -1.246410e+001  2.300000e+001
    endloop
  endfacet
  facet normal  5.000000e-001  8.660254e-001  0.000000e+000
    outer loop
      vertex  1.358846e+001 -1.246410e+001  2.300000e+001
      vertex  1.705256e+001 -1.446410e+001  3.050000e+001
      vertex  1.705256e+001 -1.446410e+001  1.550000e+001
    endloop
  endfacet
  facet normal  5.000000e-001  8.660254e-001  0.000000e+000
    outer loop
      vertex  1.358846e+001 -1.246410e+001  2.300000e+001
      vertex  1.705256e+001 -1.446410e+001  1.550000e+001
      vertex  1.358846e+001 -1.246410e+001  1.550000e+001
    endloop
  endfacet
  facet normal  8.660253e-001 -5.000000e-001  0.000000e+000
    outer loop
      vertex  1.905256e+001 -1.100000e+001  0.000000e+000
      vertex  1.905256e+001 -1.100000e+001  1.550000e+001
      vertex  1.405256e+001 -1.966025e+001  0.000000e+000
    endloop
  endfacet
  facet normal  8.660254e-001 -5.000000e-001 -3.076369e-008
    outer loop
      vertex  1.405256e+001 -1.966025e+001  0.000000e+000
      vertex  1.905256e+001 -1.100000e+001  1.550000e+001
      vertex  1.705256e+001 -1.446410e+001  1.550000e+001
    endloop
  endfacet
  facet normal  8.660254e-001 -5.000001e-001  0.000000e+000
    outer loop
      vertex  1.405256e+001 -1.966025e+001  0.000000e+000
      vertex  1.705256e+001 -1.446410e+001  1.550000e+001
      vertex  1.405256e+001 -1.966025e+001  4.600000e+001
    endloop
  endfacet
  facet normal  8.660254e-001 -5.000000e-001  0.000000e+000
    outer loop
      vertex  1.405256e+001 -1.966025e+001  4.600000e+001
      vertex  1.705256e+001 -1.446410e+001  1.550000e+001
      vertex  1.705256e+001 -1.446410e+001  3.050000e+001
    endloop
  endfacet
  facet normal  8.660253e-001 -5.000000e-001  1.230547e-008
    outer loop
      vertex  1.405256e+001 -1.966025e+001  4.600000e+001
      vertex  1.705256e+001 -1.446410e+001  3.050000e+001
      vertex  1.905256e+001 -1.100000e+001  4.600000e+001
    endloop
  endfacet
  facet normal  8.660254e-001 -5.000000e-001  0.000000e+000
    outer loop
      vertex  1.905256e+001 -1.100000e+001  4.600000e+001
      vertex  1.705256e+001 -1.446410e+001  3.050000e+001
      vertex  1.905256e+001 -1.100000e+001  3.050000e+001
    endloop
  endfacet
  facet normal  5.000000e-001  8.660254e-001  -0.000000e+000
    outer loop
      vertex  1.905256e+001 -1.100000e+001  4.600000e+001
      vertex  1.905256e+001 -1.100000e+001  3.050000e+001
      vertex  0.000000e+000  0.000000e+000  4.600000e+001
    endloop
  endfacet
  facet normal  4.999999e-001  8.660255e-001  0.000000e+000
    outer loop
      vertex  0.000000e+000  0.000000e+000  4.600000e+001
      vertex  1.905256e+001 -1.100000e+001  3.050000e+001
      vertex  1.558846e+001 -9.000000e+000  3.050000e+001
    endloop
  endfacet
  facet normal  5.000000e-001  8.660254e-001  0.000000e+000
    outer loop
      vertex  0.000000e+000  0.000000e+000  4.600000e+001
      vertex  1.558846e+001 -9.000000e+000  3.050000e+001
      vertex  0.000000e+000  0.000000e+000  0.000000e+000
    endloop
  endfacet
  facet normal  5.000000e-001  8.660253e-001  0.000000e+000
    outer loop
      vertex  0.000000e+000  0.000000e+000  0.000000e+000
      vertex  1.558846e+001 -9.000000e+000  3.050000e+001
      vertex  1.558846e+001 -9.000000e+000  2.300000e+001
    endloop
  endfacet
  facet normal  5.000000e-001  8.660254e-001  0.000000e+000
    outer loop
      vertex  0.000000e+000  0.000000e+000  0.000000e+000
      vertex  1.558846e+001 -9.000000e+000  2.300000e+001
      vertex  1.558846e+001 -9.000000e+000  1.550000e+001
    endloop
  endfacet
  facet normal  5.000000e-001  8.660254e-001  0.000000e+000
    outer loop
      vertex  1.905256e+001 -1.100000e+001  0.000000e+000
      vertex  0.000000e+000  0.000000e+000  0.000000e+000
      vertex  1.905256e+001 -1.100000e+001  1.550000e+001
    endloop
  endfacet
  facet normal  5.000000e-001  8.660254e-001  0.000000e+000
    outer loop
      vertex  1.905256e+001 -1.100000e+001  1.550000e+001
      vertex  0.000000e+000  0.000000e+000  0.000000e+000
      vertex  1.558846e+001 -9.000000e+000  1.550000e+001
    endloop
  endfacet
  facet normal  8.660254e-001 -5.000000e-001  0.000000e+000
    outer loop
      vertex  1.358846e+001 -1.246410e+001  1.550000e+001
      vertex  1.558846e+001 -9.000000e+000  1.550000e+001
      vertex  1.358846e+001 -1.246410e+001  2.300000e+001
    endloop
  endfacet
  facet normal  8.660254e-001 -5.000000e-001  0.000000e+000
    outer loop
      vertex  1.358846e+001 -1.246410e+001  2.300000e+001
      vertex  1.558846e+001 -9.000000e+000  1.550000e+001
      vertex  1.558846e+001 -9.000000e+000  2.300000e+001
    endloop
  endfacet
  facet normal  8.660254e-001 -5.000000e-001  0.000000e+000
    outer loop
      vertex  1.358846e+001 -1.246410e+001  2.300000e+001
      vertex  1.558846e+001 -9.000000e+000  2.300000e+001
      vertex  1.358846e+001 -1.246410e+001  3.050000e+001
    endloop
  endfacet
  facet normal  8.660254e-001 -5.000000e-001  0.000000e+000
    outer loop
      vertex  1.358846e+001 -1.246410e+001  3.050000e+001
      vertex  1.558846e+001 -9.000000e+000  2.300000e+001
      vertex  1.558846e+001 -9.000000e+000  3.050000e+001
    endloop
  endfacet
  facet normal  -0.000000e+000  0.000000e+000  1.000000e+000
    outer loop
      vertex -1.800000e+001  0.000000e+000  1.550000e+001
      vertex -2.200000e+001  0.000000e+000  1.550000e+001
      vertex -1.800000e+001 -4.000000e+000  1.550000e+001
    endloop
  endfacet
  facet normal  0.000000e+000  0.000000e+000  1.000000e+000
    outer loop
      vertex -1.800000e+001 -4.000000e+000  1.550000e+001
      vertex -2.200000e+001  0.000000e+000  1.550000e+001
      vertex -2.200000e+001 -4.000000e+000  1.550000e+001
    endloop
  endfacet
  facet normal  0.000000e+000  0.000000e+000 -1.000000e+000
    outer loop
      vertex -1.800000e+001  0.000000e+000  3.050000e+001
      vertex -1.800000e+001 -4.000000e+000  3.050000e+001
      vertex -2.200000e+001  0.000000e+000  3.050000e+001
    endloop
  endfacet
  facet normal  0.000000e+000  0.000000e+000 -1.000000e+000
    outer loop
      vertex -2.200000e+001  0.000000e+000  3.050000e+001
      vertex -1.800000e+001 -4.000000e+000  3.050000e+001
      vertex -2.200000e+001 -4.000000e+000  3.050000e+001
    endloop
  endfacet
  facet normal  0.000000e+000  1.000000e+000  0.000000e+000
    outer loop
      vertex -2.200000e+001 -4.000000e+000  3.050000e+001
      vertex -1.800000e+001 -4.000000e+000  3.050000e+001
      vertex -2.200000e+001 -4.000000e+000  1.550000e+001
    endloop
  endfacet
  facet normal  0.000000e+000  1.000000e+000  0.000000e+000
    outer loop
      vertex -2.200000e+001 -4.000000e+000  1.550000e+001
      vertex -1.800000e+001 -4.000000e+000  3.050000e+001
      vertex -1.800000e+001 -4.000000e+000  2.300000e+001
    endloop
  endfacet
  facet normal  0.000000e+000  1.000000e+000  0.000000e+000
    outer loop
      vertex -2.200000e+001 -4.000000e+000  1.550000e+001
      vertex -1.800000e+001 -4.000000e+000  2.300000e+001
      vertex -1.800000e+001 -4.000000e+000  1.550000e+001
    endloop
  endfacet
  facet normal  0.000000e+000  1.000000e+000  0.000000e+000
    outer loop
      vertex  0.000000e+000  0.000000e+000  0.000000e+000
      vertex -2.200000e+001  0.000000e+000  0.000000e+000
      vertex -2.200000e+001  0.000000e+000  1.550000e+001
    endloop
  endfacet
  facet normal  -0.000000e+000  1.000000e+000  0.000000e+000
    outer loop
      vertex  0.000000e+000  0.000000e+000  0.000000e+000
      vertex -2.200000e+001  0.000000e+000  1.550000e+001
      vertex -1.800000e+001  0.000000e+000  1.550000e+001
    endloop
  endfacet
  facet normal  -0.000000e+000  1.000000e+000  0.000000e+000
    outer loop
      vertex  0.000000e+000  0.000000e+000  0.000000e+000
      vertex -1.800000e+001  0.000000e+000  1.550000e+001
      vertex -1.800000e+001  0.000000e+000  2.300000e+001
    endloop
  endfacet
  facet normal  -0.000000e+000  1.000000e+000  0.000000e+000
    outer loop
      vertex  0.000000e+000  0.000000e+000  0.000000e+000
      vertex -1.800000e+001  0.000000e+000  2.300000e+001
      vertex -1.800000e+001  0.000000e+000  3.050000e+001
    endloop
  endfacet
  facet normal  -0.000000e+000  1.000000e+000  0.000000e+000
    outer loop
      vertex  0.000000e+000  0.000000e+000  0.000000e+000
      vertex -1.800000e+001  0.000000e+000  3.050000e+001
      vertex  0.000000e+000  0.000000e+000  4.600000e+001
    endloop
  endfacet
  facet normal  0.000000e+000  1.000000e+000  0.000000e+000
    outer loop
      vertex -1.800000e+001  0.000000e+000  3.050000e+001
      vertex -2.200000e+001  0.000000e+000  3.050000e+001
      vertex  0.000000e+000  0.000000e+000  4.600000e+001
    endloop
  endfacet
  facet normal  0.000000e+000  1.000000e+000  0.000000e+000
    outer loop
      vertex  0.000000e+000  0.000000e+000  4.600000e+001
      vertex -2.200000e+001  0.000000e+000  3.050000e+001
      vertex -2.200000e+001  0.000000e+000  4.600000e+001
    endloop
  endfacet
  facet normal -1.000000e+000  0.000000e+000  0.000000e+000
    outer loop
      vertex -2.200000e+001  0.000000e+000  4.600000e+001
      vertex -2.200000e+001  0.000000e+000  3.050000e+001
      vertex -2.200000e+001 -1.000000e+001  4.600000e+001
    endloop
  endfacet
  facet normal -1.000000e+000  0.000000e+000  0.000000e+000
    outer loop
      vertex -2.200000e+001 -1.000000e+001  4.600000e+001
      vertex -2.200000e+001  0.000000e+000  3.050000e+001
      vertex -2.200000e+001 -4.000000e+000  3.050000e+001
    endloop
  endfacet
  facet normal -1.000000e+000  -0.000000e+000  0.000000e+000
    outer loop
      vertex -2.200000e+001 -1.000000e+001  4.600000e+001
      vertex -2.200000e+001 -4.000000e+000  3.050000e+001
      vertex -2.200000e+001 -1.000000e+001  0.000000e+000
    endloop
  endfacet
  facet normal -1.000000e+000  0.000000e+000  0.000000e+000
    outer loop
      vertex -2.200000e+001 -1.000000e+001  0.000000e+000
      vertex -2.200000e+001 -4.000000e+000  3.050000e+001
      vertex -2.200000e+001 -4.000000e+000  1.550000e+001
    endloop
  endfacet
  facet normal -1.000000e+000  0.000000e+000  -0.000000e+000
    outer loop
      vertex -2.200000e+001 -1.000000e+001  0.000000e+000
      vertex -2.200000e+001 -4.000000e+000  1.550000e+001
      vertex -2.200000e+001  0.000000e+000  0.000000e+000
    endloop
  endfacet
  facet normal -1.000000e+000  0.000000e+000  0.000000e+000
    outer loop
      vertex -2.200000e+001  0.000000e+000  0.000000e+000
      vertex -2.200000e+001 -4.000000e+000  1.550000e+001
      vertex -2.200000e+001  0.000000e+000  1.550000e+001
    endloop
  endfacet
  facet normal -1.000000e+000  -0.000000e+000  0.000000e+000
    outer loop
      vertex -1.800000e+001 -4.000000e+000  2.300000e+001
      vertex -1.800000e+001  0.000000e+000  2.300000e+001
      vertex -1.800000e+001 -4.000000e+000  1.550000e+001
    endloop
  endfacet
  facet normal -1.000000e+000  0.000000e+000  0.000000e+000
    outer loop
      vertex -1.800000e+001 -4.000000e+000  1.550000e+001
      vertex -1.800000e+001  0.000000e+000  2.300000e+001
      vertex -1.800000e+001  0.000000e+000  1.550000e+001
    endloop
  endfacet
  facet normal -1.000000e+000  -0.000000e+000  0.000000e+000
    outer loop
      vertex -1.800000e+001 -4.000000e+000  3.050000e+001
      vertex -1.800000e+001  0.000000e+000  3.050000e+001
      vertex -1.800000e+001 -4.000000e+000  2.300000e+001
    endloop
  endfacet
  facet normal -1.000000e+000  0.000000e+000  0.000000e+000
    outer loop
      vertex -1.800000e+001 -4.000000e+000  2.300000e+001
      vertex -1.800000e+001  0.000000e+000  3.050000e+001
      vertex -1.800000e+001  0.000000e+000  2.300000e+001
    endloop
  endfacet
  facet normal  0.000000e+000  -0.000000e+000  1.000000e+000
    outer loop
      vertex -2.679492e+000 -1.000000e+001  4.600000e+001
      vertex  1.405256e+001 -1.966025e+001  4.600000e+001
      vertex  1.905256e+001 -1.100000e+001  4.600000e+001
    endloop
  endfacet
  facet normal  0.000000e+000  0.000000e+000  9.999999e-001
    outer loop
      vertex -2.679492e+000 -1.000000e+001  4.600000e+001
      vertex  1.905256e+001 -1.100000e+001  4.600000e+001
      vertex  0.000000e+000  0.000000e+000  4.600000e+001
    endloop
  endfacet
  facet normal  0.000000e+000  0.000000e+000  9.999999e-001
    outer loop
      vertex -2.679492e+000 -1.000000e+001  4.600000e+001
      vertex  0.000000e+000  0.000000e+000  4.600000e+001
      vertex -2.200000e+001  0.000000e+000  4.600000e+001
    endloop
  endfacet
  facet normal  0.000000e+000  0.000000e+000  1.000000e+000
    outer loop
      vertex -2.679492e+000 -1.000000e+001  4.600000e+001
      vertex -2.200000e+001  0.000000e+000  4.600000e+001
      vertex -2.200000e+001 -1.000000e+001  4.600000e+001
    endloop
  endfacet
  facet normal  0.000000e+000  0.000000e+000 -1.000000e+000
    outer loop
      vertex -2.679492e+000 -1.000000e+001  0.000000e+000
      vertex -2.200000e+001 -1.000000e+001  0.000000e+000
      vertex -2.200000e+001  0.000000e+000  0.000000e+000
    endloop
  endfacet
  facet normal  0.000000e+000  0.000000e+000 -9.999999e-001
    outer loop
      vertex -2.679492e+000 -1.000000e+001  0.000000e+000
      vertex -2.200000e+001  0.000000e+000  0.000000e+000
      vertex  0.000000e+000  0.000000e+000  0.000000e+000
    endloop
  endfacet
  facet normal  0.000000e+000  -0.000000e+000 -9.999999e-001
    outer loop
      vertex -2.679492e+000 -1.000000e+001  0.000000e+000
      vertex  0.000000e+000  0.000000e+000  0.000000e+000
      vertex  1.905256e+001 -1.100000e+001  0.000000e+000
    endloop
  endfacet
  facet normal  -0.000000e+000  0.000000e+000 -1.000000e+000
    outer loop
      vertex -2.679492e+000 -1.000000e+001  0.000000e+000
      vertex  1.905256e+001 -1.100000e+001  0.000000e+000
      vertex  1.405256e+001 -1.966025e+001  0.000000e+000
    endloop
  endfacet
  facet normal -4.999999e-001 -8.660254e-001  0.000000e+000
    outer loop
      vertex -2.679492e+000 -1.000000e+001  0.000000e+000
      vertex  1.405256e+001 -1.966025e+001  0.000000e+000
      vertex -2.679492e+000 -1.000000e+001  4.600000e+001
    endloop
  endfacet
  facet normal -4.999999e-001 -8.660254e-001  0.000000e+000
    outer loop
      vertex -2.679492e+000 -1.000000e+001  4.600000e+001
      vertex  1.405256e+001 -1.966025e+001  0.000000e+000
      vertex  1.405256e+001 -1.966025e+001  4.600000e+001
    endloop
  endfacet
  facet normal  0.000000e+000 -1.000000e+000  0.000000e+000
    outer loop
      vertex -2.200000e+001 -1.000000e+001  0.000000e+000
      vertex -2.679492e+000 -1.000000e+001  0.000000e+000
      vertex -2.200000e+001 -1.000000e+001  4.600000e+001
    endloop
  endfacet
  facet normal  0.000000e+000 -1.000000e+000  0.000000e+000
    outer loop
      vertex -2.200000e+001 -1.000000e+001  4.600000e+001
      vertex -2.679492e+000 -1.000000e+001  0.000000e+000
      vertex -2.679492e+000 -1.000000e+001  4.600000e+001
    endloop
  endfacet
endsolid CATIA STL
